<?xml version="1.0"?>
<svg xmlns="http://www.w3.org/2000/svg" xmlns:xlink="http://www.w3.org/1999/xlink" xmlns:svgjs="http://svgjs.com/svgjs" version="1.1" width="512" height="512" x="0" y="0" viewBox="0 0 512 512" style="enable-background:new 0 0 512 512" xml:space="preserve" class=""><g><g xmlns="http://www.w3.org/2000/svg"><path d="m226 390h60v122h-60z" fill="#ffffff" data-original="#000000" style="" class=""/><path d="m121.023 512h74.977v-152h120v152h75.333v-512h-270.31zm209.977-452h30v30h-30zm0 60h30v30h-30zm0 60h30v30h-30zm0 60h30v30h-30zm0 60h30v30h-30zm-60-240h30v30h-30zm0 60h30v30h-30zm0 60h30v30h-30zm0 60h30v30h-30zm0 60h30v30h-30zm-60-240h30v30h-30zm0 60h30v30h-30zm0 60h30v30h-30zm0 60h30v30h-30zm0 60h30v30h-30zm-60-240h30v30h-30zm0 60h30v30h-30zm0 60h30v30h-30zm0 60h30v30h-30zm0 60h30v30h-30z" fill="#ffffff" data-original="#000000" style="" class=""/><path d="m420.637 120h91.363v392h-91.363z" fill="#ffffff" data-original="#000000" style="" class=""/><path d="m0 120h90.996v392h-90.996z" fill="#ffffff" data-original="#000000" style="" class=""/></g></g></svg>
