<?xml version="1.0"?>
<svg xmlns="http://www.w3.org/2000/svg" xmlns:xlink="http://www.w3.org/1999/xlink" xmlns:svgjs="http://svgjs.com/svgjs" version="1.1" width="512" height="512" x="0" y="0" viewBox="0 0 512 512" style="enable-background:new 0 0 512 512" xml:space="preserve" class=""><g><g xmlns="http://www.w3.org/2000/svg"><path d="m333.03 427.66-11.72 84.34h55.64l14.89-107.88c-15.318 14.782-37.299 24.401-58.81 23.54z" fill="#ffffff" data-original="#000000" style="" class=""/><path d="m120.18 404.12 14.89 107.88h55.64l-11.72-84.34c-21.508.861-43.496-8.762-58.81-23.54z" fill="#ffffff" data-original="#000000" style="" class=""/><path d="m465.05 209.35c-.01-21.8-12.52-35.68-28.56-48.33 7.89-19.82 11.55-39.12-.8-58.38-11.19-17.44-28.28-22.6-47.56-25.39-2.92-19.95-8.38-37.46-26.85-48.53-18.98-11.37-37.73-7.5-56.94.17-12.62-16.03-26.47-28.89-48.33-28.89s-35.74 12.86-48.35 28.89c-19.22-7.67-37.96-11.54-56.94-.17-18.47 11.07-23.93 28.58-26.85 48.53-19.29 2.79-36.37 7.95-47.56 25.39-12.35 19.26-8.69 38.56-.8 58.38-16.04 12.65-28.55 26.53-28.56 48.33-.01 21.82 12.52 35.73 28.56 48.39-8.08 20.27-11.59 40.16 1.56 59.57 11.3 16.7 28.06 21.49 46.8 24.2 2.94 20.08 8.57 37.76 27.18 48.73 18.86 11.11 37.49 7.25 56.61-.37 12.59 15.99 26.59 28.89 48.35 28.9 21.76-.01 35.74-12.91 48.33-28.9 19.12 7.62 37.75 11.48 56.6.37 18.61-10.97 24.25-28.65 27.19-48.73 18.74-2.71 35.49-7.5 46.8-24.2 13.14-19.41 9.64-39.3 1.56-59.57 16.04-12.66 28.56-26.57 28.56-48.39zm-116.29-13.7-21.71-26.06-11.14 93.76c-3.6 30.33-29.36 53.2-59.9 53.2s-56.3-22.87-59.9-53.2l-11.14-93.76-21.71 26.06-23.05-19.21 48.52-58.23h134.56l48.52 58.23zm-122.86 64.16c1.81 15.25 14.76 26.74 30.11 26.74s28.3-11.49 30.11-26.74l13.26-111.6h-86.74z" fill="#ffffff" data-original="#000000" style="" class=""/></g></g></svg>
