<?xml version="1.0"?>
<svg xmlns="http://www.w3.org/2000/svg" xmlns:xlink="http://www.w3.org/1999/xlink" xmlns:svgjs="http://svgjs.com/svgjs" version="1.1" width="512" height="512" x="0" y="0" viewBox="0 0 512 512" style="enable-background:new 0 0 512 512" xml:space="preserve" class=""><g><path xmlns="http://www.w3.org/2000/svg" d="M388.4,76.668a26.846,26.846,0,0,0-19.1-7.951l-22.165-.041,3.006-3.075A25.684,25.684,0,1,0,313.891,29.21L277.315,65.65,250.479,38.714a25.513,25.513,0,0,0-18.148-7.556h-.049a25.7,25.7,0,0,0-22.931,37.263l-25.185-.047h-.051A27.025,27.025,0,0,0,157.09,95.351l-.054,29.765a6,6,0,0,0,6,6.011h8.876V238.25a27.057,27.057,0,0,0,27.026,27.026H354.379a27.057,27.057,0,0,0,27.026-27.026V131.127h8.823a6,6,0,0,0,6-5.989l.053-29.344A26.846,26.846,0,0,0,388.4,76.668ZM322.359,37.711a13.685,13.685,0,1,1,19.263,19.444L330.46,68.569l-39.075,0Zm-99.734,9.437a13.594,13.594,0,0,1,9.658-3.99h.026a13.6,13.6,0,0,1,9.67,4.026l21.257,21.337-38.984-.351L222.589,66.5a13.685,13.685,0,0,1,.036-19.353Zm21.947,206.128H198.938a15.043,15.043,0,0,1-15.026-15.026V131.127h60.724Zm.07-134.149H169.047l.043-23.754a15.026,15.026,0,0,1,15.025-15h.03l60.517.112ZM298.03,253.276H256.572l.064-122.149h41.457Zm.069-134.149H256.642l.02-38.619,41.457.077ZM369.405,238.25a15.043,15.043,0,0,1-15.026,15.026H310.03l.063-122.149h59.312Zm14.833-119.123H310.1l.02-38.52,59.164.11a15.026,15.026,0,0,1,15,15.054Z" fill="#ffffff" data-original="#000000" style="" class=""/><path xmlns="http://www.w3.org/2000/svg" d="M450.022,310.982l-3.186,1.719c-10.465-13.124-28.966-18.292-43.008-11.174-.045.023-.09.046-.134.07l-6.714,3.617a46.931,46.931,0,0,0-54.125-5.178L308.89,318.505H263.732a65.673,65.673,0,0,1-28.434-6.516L229.112,309a105.4,105.4,0,0,0-109.7,10.713c-.131.1-.259.2-.382.312L104.1,333.32C98.656,338.164,42.43,367.7,8.267,385.181a6,6,0,1,0,5.466,10.683c14.984-7.667,90.143-46.28,98.344-53.581l14.747-13.13a93.448,93.448,0,0,1,97.064-9.352l6.185,2.991a77.751,77.751,0,0,0,33.659,7.713h59.987a38.664,38.664,0,0,1,38.086,32.3L317.423,360.8a259.673,259.673,0,0,0-47.185,2.18,6,6,0,1,0,1.645,11.886,247.464,247.464,0,0,1,45-2.078l51.167,2.316a6,6,0,0,0,6.271-6c0-1.231-.059-2.448-.146-3.658l7.431-3.918,74.119-39.985a30.1,30.1,0,0,1,36.792,6.43L342,431.319a103.891,103.891,0,0,1-63.8,8.881l-89.971-16.568a39.4,39.4,0,0,0-28.777,3.913L69.31,479.07a6,6,0,1,0,5.955,10.418l90.093-51.5a27.439,27.439,0,0,1,20.141-2.672q.186.048.375.081l90.17,16.606A115.993,115.993,0,0,0,347.7,441.888a6.011,6.011,0,0,0,.735-.431L504.4,334.37a6,6,0,0,0,1.745-8.041A42.084,42.084,0,0,0,450.022,310.982Zm-101.365-.441.143-.08a34.929,34.929,0,0,1,36.592,1l-31.566,17.008a50.359,50.359,0,0,0-21.266-9.172Zm27.3,40.4-4.224,2.227a50.55,50.55,0,0,0-8.789-15.982L409.314,312.2c8.32-4.171,19.592-1.183,26.709,6.336Z" fill="#ffffff" data-original="#000000" style="" class=""/></g></svg>
